<?xml version="1.0" encoding="UTF-8" standalone="no"?>
<svg width="121px" height="121px" viewBox="0 0 121 121" version="1.1" xmlns="http://www.w3.org/2000/svg" xmlns:xlink="http://www.w3.org/1999/xlink" xmlns:sketch="http://www.bohemiancoding.com/sketch/ns">
    <!-- Generator: Sketch 3.2.2 (9983) - http://www.bohemiancoding.com/sketch -->
    <title>Oval 1 + RH</title>
    <desc>Created with Sketch.</desc>
    <defs>
        <linearGradient x1="0%" y1="0%" x2="101.999998%" y2="100.999999%" id="linearGradient-1">
            <stop stop-color="#9AC1D5" offset="0%"></stop>
            <stop stop-color="#9AC1D5" offset="100%"></stop>
        </linearGradient>
    </defs>
    <g id="Welcome" stroke="none" stroke-width="1" fill="none" fill-rule="evenodd" sketch:type="MSPage">
        <g id="Mobile-Portrait" sketch:type="MSArtboardGroup" transform="translate(-101.000000, -19.000000)">
            <g id="Oval-1-+-RH" sketch:type="MSLayerGroup" transform="translate(101.000000, 19.000000)">
                <path d="M60.5,121 C89.0279332,121 112.944133,101.254823 119.327793,74.6852768 C120.420969,70.1353485 121,65.3852942 121,60.5 C121,27.0867726 93.9132274,0 60.5,0 C27.0867726,0 0,27.0867726 0,60.5 C0,93.9132274 27.0867726,121 60.5,121 Z" id="Oval-1" fill="url(#linearGradient-1)" sketch:type="MSShapeGroup"></path>
                <g id="RH" transform="translate(14.000000, 37.000000)" fill="#FFFFFF" sketch:type="MSShapeGroup">
                    <path d="M0.736,46.36 C3.616,46.144 6.712,46 9.664,46 C12.688,46 15.568,46.144 18.592,46.36 L18.592,43.408 L14.416,42.904 C12.976,42.76 12.832,42.76 12.76,42.04 C12.688,40.672 12.616,39.736 12.616,37.432 L12.616,25.12 L13.12,25.12 C16,25.12 18.736,25.264 20.464,27.928 C21.544,29.8 23.2,32.176 24.28,33.904 C30.256,43.192 34.288,46.504 39.616,46.504 L40.12,46.504 L40.696,44.632 C37.672,42.328 35.224,39.808 32.848,36.64 C29.752,32.68 27.088,28.36 24.424,23.104 C29.104,20.08 32.416,16.264 32.416,10.432 C32.416,6.4 30.256,3.52 26.512,2.152 C22.84,0.712 17.584,0.568 12.184,0.568 C7.432,0.568 4.768,0.64 0.88,1 L0.88,4.096 C2.752,4.024 4.768,3.88 6.712,3.88 L6.712,37.432 C6.712,39.736 6.64,40.672 6.568,42.04 C6.496,42.76 6.28,42.76 4.84,42.904 L0.736,43.408 L0.736,46.36 Z M12.616,22.168 L12.616,3.952 C19.024,3.952 26.296,4.24 26.296,12.448 C26.296,18.424 21.256,22.168 13.408,22.168 L12.616,22.168 Z M41.704,46.36 C44.584,46.144 47.68,46 50.632,46 C53.656,46 56.68,46.144 59.632,46.36 L59.632,43.408 L55.456,42.904 C54.016,42.76 53.872,42.76 53.8,42.04 C53.728,40.672 53.656,39.736 53.656,37.432 L53.656,27.64 C53.656,25.84 53.872,25.12 54.808,24.832 C55.816,24.472 58.48,24.328 65.68,24.112 C69.784,23.968 73.816,23.968 77.848,23.968 L77.848,37.432 C77.848,39.736 77.776,40.672 77.704,42.04 C77.632,42.76 77.416,42.76 75.976,42.904 L71.728,43.408 L71.728,46.36 C74.608,46.144 77.776,46 80.728,46 C83.824,46 86.848,46.144 89.8,46.36 L89.8,43.408 L85.696,42.904 C84.256,42.76 84.04,42.76 83.968,42.04 C83.896,40.672 83.824,39.736 83.824,37.432 L83.824,9.64 C83.824,7.336 83.896,6.472 83.968,5.104 C84.04,4.384 84.256,4.312 85.696,4.168 L89.8,3.664 L89.8,0.712 C86.92,0.928 83.752,1.072 80.8,1.072 C77.704,1.072 74.752,0.928 71.728,0.712 L71.728,3.664 L75.976,4.168 C77.416,4.312 77.632,4.384 77.704,5.104 C77.776,6.472 77.848,7.336 77.848,9.64 L77.848,20.224 L53.656,20.224 L53.656,9.64 C53.656,7.336 53.728,6.472 53.8,5.104 C53.872,4.384 54.016,4.312 55.456,4.168 L59.632,3.664 L59.632,0.712 C56.752,0.928 53.584,1.072 50.632,1.072 C47.608,1.072 44.728,0.928 41.704,0.712 L41.704,3.664 L45.808,4.168 C47.248,4.312 47.464,4.384 47.536,5.104 C47.608,6.472 47.68,7.336 47.68,9.64 L47.68,37.432 C47.68,39.736 47.608,40.672 47.536,42.04 C47.464,42.76 47.248,42.76 45.808,42.904 L41.704,43.408 L41.704,46.36 Z"></path>
                </g>
            </g>
        </g>
    </g>
</svg>