<?xml version="1.0" encoding="UTF-8" standalone="no"?>
<svg width="20px" height="16px" viewBox="0 0 20 16" version="1.1" xmlns="http://www.w3.org/2000/svg" xmlns:xlink="http://www.w3.org/1999/xlink" xmlns:sketch="http://www.bohemiancoding.com/sketch/ns">
    <!-- Generator: Sketch 3.2.2 (9983) - http://www.bohemiancoding.com/sketch -->
    <title>Twitter_logo_white</title>
    <desc>Created with Sketch.</desc>
    <defs>
        <path id="path-1" d="M0.00437956204,0.0589775785 L19.9554745,0.0589775785 L19.9554745,15.9956951 L0.00437956204,15.9956951"></path>
    </defs>
    <g id="Page-1" stroke="none" stroke-width="1" fill="none" fill-rule="evenodd" sketch:type="MSPage">
        <g id="Twitter_logo_white" sketch:type="MSLayerGroup">
            <mask id="mask-2" sketch:name="Clip 2" fill="white">
                <use xlink:href="#path-1"></use>
            </mask>
            <g id="Clip-2"></g>
            <path d="M6.27591241,16 C3.96386861,16 1.81182482,15.3338117 0,14.192 C0.320291971,14.2291659 0.64620438,14.2481794 0.976642336,14.2481794 C2.89474453,14.2481794 4.66007299,13.6048072 6.06124088,12.5254888 C4.26970803,12.4929865 2.75773723,11.3295067 2.23678832,9.73065471 C2.48671533,9.77765022 2.74321168,9.80283408 3.0070073,9.80283408 C3.38043796,9.80283408 3.74211679,9.7536861 4.08569343,9.66170404 C2.21270073,9.29205381 0.801532847,7.66550673 0.801532847,5.71565919 C0.801532847,5.69872646 0.801532847,5.68186547 0.801824818,5.66507623 C1.35386861,5.96649327 1.98510949,6.1475157 2.65627737,6.16839462 C1.55773723,5.44674439 0.834890511,4.21495964 0.834890511,2.81879821 C0.834890511,2.08129148 1.03678832,1.38999103 1.38919708,0.795623318 C3.40846715,3.23034978 6.42518248,4.83250224 9.82781022,5.00032287 C9.7580292,4.70579372 9.72175182,4.39863677 9.72175182,4.0832287 C9.72175182,1.86080717 11.5548905,0.0589775785 13.8159854,0.0589775785 C14.9935036,0.0589775785 16.0575182,0.547730942 16.8043796,1.32986547 C17.7369343,1.14934529 18.6131387,0.814421525 19.4041606,0.35329148 C19.0984672,1.29298655 18.4493431,2.08165022 17.6040146,2.57973094 C18.4321898,2.48243946 19.2212409,2.26611659 19.9554745,1.94604484 C19.4065693,2.75307623 18.7124088,3.46188341 17.9125547,4.02927354 C17.920438,4.2018296 17.9243796,4.37539013 17.9243796,4.54988341 C17.9243796,9.86783857 13.8064234,16 6.27591241,16" id="Fill-1" fill="#FFFFFF" sketch:type="MSShapeGroup" mask="url(#mask-2)"></path>
        </g>
    </g>
</svg>